# xmcd CD database file
# Copyright (C) 1993-1998 Ti Kan
#
# Track frame offsets:
#	182
#	13842
#	26047
#	38352
#	68695
#	80837
#	92527
#	104507
#	114067
#	127207
#	136157
#	147242
#	159917
#	176250
#	188167
#	200775
#	217825
#	229570
#	240050
#	262820
#
# Disc length: 3599 seconds
#
# Revision: 1
# Processed by: cddbd v1.4b41PL1 Copyright (c) Steve Scherf et al.
# Submitted via: CDValet v3.31 - Copyright (c) 1997 Greg Leichner
#
DISCID=fb0e0d14
DTITLE=The Staple Singers - Gospel Greats
DYEAR=1900
DGENRE=
TTITLE0=Uncloudy Day
TTITLE1=Let me ride
TTITLE2=Help me Jesus
TTITLE3=I'm coming home
TTITLE4=God's wonderful love
TTITLE5=Low is the way
TTITLE6=Ain't that good news
TTITLE7=This may be the last time
TTITLE8=I had a dream
TTITLE9=Going a way
TTITLE10=I know I got religion
TTITLE11=Will the circle be unbroken
TTITLE12=Stand by me
TTITLE13=Come up in glory
TTITLE14=Pray on
TTITLE15=Somebody save me
TTITLE16=Each day
TTITLE17=So soon
TTITLE18=Too close
TTITLE19=Let's go home
EXTD=
EXTT0=
EXTT1=
EXTT2=
EXTT3=
EXTT4=
EXTT5=
EXTT6=
EXTT7=
EXTT8=
EXTT9=
EXTT10=
EXTT11=
EXTT12=
EXTT13=
EXTT14=
EXTT15=
EXTT16=
EXTT17=
EXTT18=
EXTT19=
PLAYORDER=
